<svg xmlns="http://www.w3.org/2000/svg" width="229" height="459" viewBox="0 0 229 459">
  <g id="Group_87" data-name="Group 87" transform="translate(-384 -3968)">
    <g id="Rectangle_107" data-name="Rectangle 107" transform="translate(384 3981)" fill="#900" stroke="#900" stroke-width="1">
      <rect width="229" height="446" stroke="none"/>
      <rect x="0.5" y="0.5" width="228" height="445" fill="none"/>
    </g>
    <g id="Rectangle_108" data-name="Rectangle 108" transform="translate(384 3968)" fill="#fff" stroke="#900" stroke-width="1">
      <rect width="216" height="444" stroke="none"/>
      <rect x="0.5" y="0.5" width="215" height="443" fill="none"/>
    </g>
    <text id="_1st_Year_Spring" data-name="1st Year Spring" transform="translate(409 3994)" font-size="32" font-family="BentonSans-Black, Benton Sans" font-weight="800" opacity="0.601"><tspan x="0" y="30">1st Year </tspan><tspan x="0" y="68">Spring</tspan></text>
    <text id="Interaction_Design_Methods_Elective_1_Elective_2" data-name="Interaction Design 
Methods

Elective 1

Elective 2" transform="translate(409 4116)" fill="#707070" font-size="20" font-family="BentonSans-Regular, Benton Sans"><tspan x="0" y="19">Interaction </tspan><tspan x="0" y="43">Design </tspan><tspan x="0" y="67">Methods</tspan><tspan x="0" y="91"></tspan><tspan x="0" y="115">Elective 1</tspan><tspan x="0" y="139"></tspan><tspan x="0" y="163">Elective 2</tspan></text>
    <text id="Interaction_Design_Methods_Elective_1_Elective_2-2" data-name="Interaction Design 
Methods

Elective 1

Elective 2" transform="translate(409 4116)" fill="#707070" font-size="20" font-family="BentonSans-Regular, Benton Sans"><tspan x="0" y="19">Interaction </tspan><tspan x="0" y="43">Design </tspan><tspan x="0" y="67">Methods</tspan><tspan x="0" y="91"></tspan><tspan x="0" y="115">Elective 1</tspan><tspan x="0" y="139"></tspan><tspan x="0" y="163">Elective 2</tspan></text>
    <text id="Interaction_Design_Methods_Elective_1_Elective_2-3" data-name="Interaction Design 
Methods

Elective 1

Elective 2" transform="translate(409 4116)" fill="#707070" font-size="20" font-family="BentonSans-Regular, Benton Sans"><tspan x="0" y="19">Interaction </tspan><tspan x="0" y="43">Design </tspan><tspan x="0" y="67">Methods</tspan><tspan x="0" y="91"></tspan><tspan x="0" y="115">Elective 1</tspan><tspan x="0" y="139"></tspan><tspan x="0" y="163">Elective 2</tspan></text>
  </g>
</svg>
